solid OpenSCAD_Model
  facet normal 0.987688 0.156435 0
    outer loop
      vertex 5 0 2
      vertex 4.75528 1.54508 0
      vertex 4.75528 1.54508 2
    endloop
  endfacet
  facet normal 0.987688 0.156435 0
    outer loop
      vertex 4.75528 1.54508 0
      vertex 5 0 2
      vertex 5 0 0
    endloop
  endfacet
  facet normal 0.891007 0.45399 0
    outer loop
      vertex 4.75528 1.54508 2
      vertex 4.04508 2.93893 0
      vertex 4.04508 2.93893 2
    endloop
  endfacet
  facet normal 0.891007 0.45399 0
    outer loop
      vertex 4.04508 2.93893 0
      vertex 4.75528 1.54508 2
      vertex 4.75528 1.54508 0
    endloop
  endfacet
  facet normal 0.707107 0.707107 0
    outer loop
      vertex 4.04508 2.93893 2
      vertex 2.93893 4.04508 0
      vertex 2.93893 4.04508 2
    endloop
  endfacet
  facet normal 0.707107 0.707107 0
    outer loop
      vertex 2.93893 4.04508 0
      vertex 4.04508 2.93893 2
      vertex 4.04508 2.93893 0
    endloop
  endfacet
  facet normal 0.45399 0.891007 -0
    outer loop
      vertex 2.93893 4.04508 0
      vertex 1.54508 4.75528 2
      vertex 2.93893 4.04508 2
    endloop
  endfacet
  facet normal 0.45399 0.891007 0
    outer loop
      vertex 1.54508 4.75528 2
      vertex 2.93893 4.04508 0
      vertex 1.54508 4.75528 0
    endloop
  endfacet
  facet normal 0.156435 0.987688 -0
    outer loop
      vertex 1.54508 4.75528 0
      vertex 3.06162e-16 5 2
      vertex 1.54508 4.75528 2
    endloop
  endfacet
  facet normal 0.156435 0.987688 0
    outer loop
      vertex 3.06162e-16 5 2
      vertex 1.54508 4.75528 0
      vertex 3.06162e-16 5 0
    endloop
  endfacet
  facet normal -0.156435 0.987688 0
    outer loop
      vertex 3.06162e-16 5 0
      vertex -1.54508 4.75528 2
      vertex 3.06162e-16 5 2
    endloop
  endfacet
  facet normal -0.156435 0.987688 0
    outer loop
      vertex -1.54508 4.75528 2
      vertex 3.06162e-16 5 0
      vertex -1.54508 4.75528 0
    endloop
  endfacet
  facet normal -0.45399 0.891007 0
    outer loop
      vertex -1.54508 4.75528 0
      vertex -2.93893 4.04508 2
      vertex -1.54508 4.75528 2
    endloop
  endfacet
  facet normal -0.45399 0.891007 0
    outer loop
      vertex -2.93893 4.04508 2
      vertex -1.54508 4.75528 0
      vertex -2.93893 4.04508 0
    endloop
  endfacet
  facet normal -0.707107 0.707107 0
    outer loop
      vertex -4.04508 2.93893 0
      vertex -2.93893 4.04508 2
      vertex -2.93893 4.04508 0
    endloop
  endfacet
  facet normal -0.707107 0.707107 0
    outer loop
      vertex -2.93893 4.04508 2
      vertex -4.04508 2.93893 0
      vertex -4.04508 2.93893 2
    endloop
  endfacet
  facet normal -0.891007 0.45399 0
    outer loop
      vertex -4.75528 1.54508 0
      vertex -4.04508 2.93893 2
      vertex -4.04508 2.93893 0
    endloop
  endfacet
  facet normal -0.891007 0.45399 0
    outer loop
      vertex -4.04508 2.93893 2
      vertex -4.75528 1.54508 0
      vertex -4.75528 1.54508 2
    endloop
  endfacet
  facet normal -0.987688 0.156435 0
    outer loop
      vertex -5 6.12323e-16 0
      vertex -4.75528 1.54508 2
      vertex -4.75528 1.54508 0
    endloop
  endfacet
  facet normal -0.987688 0.156435 0
    outer loop
      vertex -4.75528 1.54508 2
      vertex -5 6.12323e-16 0
      vertex -5 6.12323e-16 2
    endloop
  endfacet
  facet normal -0.987688 -0.156435 0
    outer loop
      vertex -4.75528 -1.54508 0
      vertex -5 6.12323e-16 2
      vertex -5 6.12323e-16 0
    endloop
  endfacet
  facet normal -0.987688 -0.156435 0
    outer loop
      vertex -5 6.12323e-16 2
      vertex -4.75528 -1.54508 0
      vertex -4.75528 -1.54508 2
    endloop
  endfacet
  facet normal -0.891007 -0.45399 0
    outer loop
      vertex -4.04508 -2.93893 0
      vertex -4.75528 -1.54508 2
      vertex -4.75528 -1.54508 0
    endloop
  endfacet
  facet normal -0.891007 -0.45399 0
    outer loop
      vertex -4.75528 -1.54508 2
      vertex -4.04508 -2.93893 0
      vertex -4.04508 -2.93893 2
    endloop
  endfacet
  facet normal -0.707107 -0.707107 0
    outer loop
      vertex -2.93893 -4.04508 0
      vertex -4.04508 -2.93893 2
      vertex -4.04508 -2.93893 0
    endloop
  endfacet
  facet normal -0.707107 -0.707107 0
    outer loop
      vertex -4.04508 -2.93893 2
      vertex -2.93893 -4.04508 0
      vertex -2.93893 -4.04508 2
    endloop
  endfacet
  facet normal -0.45399 -0.891007 0
    outer loop
      vertex -2.93893 -4.04508 0
      vertex -1.54508 -4.75528 2
      vertex -2.93893 -4.04508 2
    endloop
  endfacet
  facet normal -0.45399 -0.891007 -0
    outer loop
      vertex -1.54508 -4.75528 2
      vertex -2.93893 -4.04508 0
      vertex -1.54508 -4.75528 0
    endloop
  endfacet
  facet normal -0.156435 -0.987688 0
    outer loop
      vertex -1.54508 -4.75528 0
      vertex -9.18485e-16 -5 2
      vertex -1.54508 -4.75528 2
    endloop
  endfacet
  facet normal -0.156435 -0.987688 -0
    outer loop
      vertex -9.18485e-16 -5 2
      vertex -1.54508 -4.75528 0
      vertex -9.18485e-16 -5 0
    endloop
  endfacet
  facet normal 0.156435 -0.987688 0
    outer loop
      vertex -9.18485e-16 -5 0
      vertex 1.54508 -4.75528 2
      vertex -9.18485e-16 -5 2
    endloop
  endfacet
  facet normal 0.156435 -0.987688 0
    outer loop
      vertex 1.54508 -4.75528 2
      vertex -9.18485e-16 -5 0
      vertex 1.54508 -4.75528 0
    endloop
  endfacet
  facet normal 0.45399 -0.891007 0
    outer loop
      vertex 1.54508 -4.75528 0
      vertex 2.93893 -4.04508 2
      vertex 1.54508 -4.75528 2
    endloop
  endfacet
  facet normal 0.45399 -0.891007 0
    outer loop
      vertex 2.93893 -4.04508 2
      vertex 1.54508 -4.75528 0
      vertex 2.93893 -4.04508 0
    endloop
  endfacet
  facet normal 0.707107 -0.707107 0
    outer loop
      vertex 2.93893 -4.04508 2
      vertex 4.04508 -2.93893 0
      vertex 4.04508 -2.93893 2
    endloop
  endfacet
  facet normal 0.707107 -0.707107 0
    outer loop
      vertex 4.04508 -2.93893 0
      vertex 2.93893 -4.04508 2
      vertex 2.93893 -4.04508 0
    endloop
  endfacet
  facet normal 0.891007 -0.45399 0
    outer loop
      vertex 4.04508 -2.93893 2
      vertex 4.75528 -1.54508 0
      vertex 4.75528 -1.54508 2
    endloop
  endfacet
  facet normal 0.891007 -0.45399 0
    outer loop
      vertex 4.75528 -1.54508 0
      vertex 4.04508 -2.93893 2
      vertex 4.04508 -2.93893 0
    endloop
  endfacet
  facet normal 0.987688 -0.156435 0
    outer loop
      vertex 4.75528 -1.54508 2
      vertex 5 0 0
      vertex 5 0 2
    endloop
  endfacet
  facet normal 0.987688 -0.156435 0
    outer loop
      vertex 5 0 0
      vertex 4.75528 -1.54508 2
      vertex 4.75528 -1.54508 0
    endloop
  endfacet
  facet normal 0 0 -1
    outer loop
      vertex 4.75528 -1.54508 0
      vertex 4.75528 1.54508 0
      vertex 5 0 0
    endloop
  endfacet
  facet normal 0 0 -1
    outer loop
      vertex 4.04508 -2.93893 0
      vertex 4.75528 1.54508 0
      vertex 4.75528 -1.54508 0
    endloop
  endfacet
  facet normal 0 0 -1
    outer loop
      vertex 4.04508 -2.93893 0
      vertex 4.04508 2.93893 0
      vertex 4.75528 1.54508 0
    endloop
  endfacet
  facet normal 0 0 -1
    outer loop
      vertex 2.93893 -4.04508 0
      vertex 4.04508 2.93893 0
      vertex 4.04508 -2.93893 0
    endloop
  endfacet
  facet normal 0 0 -1
    outer loop
      vertex 2.93893 -4.04508 0
      vertex 2.93893 4.04508 0
      vertex 4.04508 2.93893 0
    endloop
  endfacet
  facet normal 0 0 -1
    outer loop
      vertex 1.54508 -4.75528 0
      vertex 2.93893 4.04508 0
      vertex 2.93893 -4.04508 0
    endloop
  endfacet
  facet normal 0 0 -1
    outer loop
      vertex 1.54508 -4.75528 0
      vertex 1.54508 4.75528 0
      vertex 2.93893 4.04508 0
    endloop
  endfacet
  facet normal 0 0 -1
    outer loop
      vertex 1.54508 -4.75528 0
      vertex 3.06162e-16 5 0
      vertex 1.54508 4.75528 0
    endloop
  endfacet
  facet normal 0 0 -1
    outer loop
      vertex -9.18485e-16 -5 0
      vertex 3.06162e-16 5 0
      vertex 1.54508 -4.75528 0
    endloop
  endfacet
  facet normal 0 0 -1
    outer loop
      vertex -1.54508 -4.75528 0
      vertex 3.06162e-16 5 0
      vertex -9.18485e-16 -5 0
    endloop
  endfacet
  facet normal 0 0 -1
    outer loop
      vertex -1.54508 -4.75528 0
      vertex -1.54508 4.75528 0
      vertex 3.06162e-16 5 0
    endloop
  endfacet
  facet normal 0 0 -1
    outer loop
      vertex -2.93893 -4.04508 0
      vertex -1.54508 4.75528 0
      vertex -1.54508 -4.75528 0
    endloop
  endfacet
  facet normal 0 0 -1
    outer loop
      vertex -2.93893 -4.04508 0
      vertex -2.93893 4.04508 0
      vertex -1.54508 4.75528 0
    endloop
  endfacet
  facet normal 0 0 -1
    outer loop
      vertex -4.04508 -2.93893 0
      vertex -2.93893 4.04508 0
      vertex -2.93893 -4.04508 0
    endloop
  endfacet
  facet normal 0 0 -1
    outer loop
      vertex -4.04508 -2.93893 0
      vertex -4.04508 2.93893 0
      vertex -2.93893 4.04508 0
    endloop
  endfacet
  facet normal 0 0 -1
    outer loop
      vertex -4.75528 -1.54508 0
      vertex -4.04508 2.93893 0
      vertex -4.04508 -2.93893 0
    endloop
  endfacet
  facet normal 0 0 -1
    outer loop
      vertex -4.75528 -1.54508 0
      vertex -4.75528 1.54508 0
      vertex -4.04508 2.93893 0
    endloop
  endfacet
  facet normal 0 -0 -1
    outer loop
      vertex -4.75528 1.54508 0
      vertex -4.75528 -1.54508 0
      vertex -5 6.12323e-16 0
    endloop
  endfacet
  facet normal 0 0 1
    outer loop
      vertex 4.75528 1.54508 2
      vertex 4.75528 -1.54508 2
      vertex 5 0 2
    endloop
  endfacet
  facet normal 0 0 1
    outer loop
      vertex 4.04508 2.93893 2
      vertex 4.75528 -1.54508 2
      vertex 4.75528 1.54508 2
    endloop
  endfacet
  facet normal 0 0 1
    outer loop
      vertex 4.04508 2.93893 2
      vertex 4.04508 -2.93893 2
      vertex 4.75528 -1.54508 2
    endloop
  endfacet
  facet normal 0 0 1
    outer loop
      vertex 2.93893 4.04508 2
      vertex 4.04508 -2.93893 2
      vertex 4.04508 2.93893 2
    endloop
  endfacet
  facet normal 0 0 1
    outer loop
      vertex 2.93893 4.04508 2
      vertex 2.93893 -4.04508 2
      vertex 4.04508 -2.93893 2
    endloop
  endfacet
  facet normal 0 0 1
    outer loop
      vertex 1.54508 4.75528 2
      vertex 2.93893 -4.04508 2
      vertex 2.93893 4.04508 2
    endloop
  endfacet
  facet normal 0 0 1
    outer loop
      vertex 1.54508 4.75528 2
      vertex 1.54508 -4.75528 2
      vertex 2.93893 -4.04508 2
    endloop
  endfacet
  facet normal 0 0 1
    outer loop
      vertex 3.06162e-16 5 2
      vertex 1.54508 -4.75528 2
      vertex 1.54508 4.75528 2
    endloop
  endfacet
  facet normal 0 0 1
    outer loop
      vertex 3.06162e-16 5 2
      vertex -9.18485e-16 -5 2
      vertex 1.54508 -4.75528 2
    endloop
  endfacet
  facet normal -0 0 1
    outer loop
      vertex -1.54508 4.75528 2
      vertex -9.18485e-16 -5 2
      vertex 3.06162e-16 5 2
    endloop
  endfacet
  facet normal 0 0 1
    outer loop
      vertex -1.54508 4.75528 2
      vertex -1.54508 -4.75528 2
      vertex -9.18485e-16 -5 2
    endloop
  endfacet
  facet normal -0 0 1
    outer loop
      vertex -2.93893 4.04508 2
      vertex -1.54508 -4.75528 2
      vertex -1.54508 4.75528 2
    endloop
  endfacet
  facet normal 0 0 1
    outer loop
      vertex -2.93893 4.04508 2
      vertex -2.93893 -4.04508 2
      vertex -1.54508 -4.75528 2
    endloop
  endfacet
  facet normal -0 0 1
    outer loop
      vertex -4.04508 2.93893 2
      vertex -2.93893 -4.04508 2
      vertex -2.93893 4.04508 2
    endloop
  endfacet
  facet normal 0 0 1
    outer loop
      vertex -4.04508 2.93893 2
      vertex -4.04508 -2.93893 2
      vertex -2.93893 -4.04508 2
    endloop
  endfacet
  facet normal -0 0 1
    outer loop
      vertex -4.75528 1.54508 2
      vertex -4.04508 -2.93893 2
      vertex -4.04508 2.93893 2
    endloop
  endfacet
  facet normal 0 0 1
    outer loop
      vertex -4.75528 1.54508 2
      vertex -4.75528 -1.54508 2
      vertex -4.04508 -2.93893 2
    endloop
  endfacet
  facet normal 0 -0 1
    outer loop
      vertex -4.75528 -1.54508 2
      vertex -4.75528 1.54508 2
      vertex -5 6.12323e-16 2
    endloop
  endfacet
endsolid OpenSCAD_Model
